<svg width="36" height="33" viewBox="0 0 36 33" fill="none" xmlns="http://www.w3.org/2000/svg">
<path fill-rule="evenodd" clip-rule="evenodd" d="M25.7958 15.4664C25.7213 15.2595 25.6388 15.0302 25.5137 14.7279V14.7224C24.2544 11.7184 21.2902 9.75614 17.9972 9.75614C14.7042 9.75614 11.74 11.7129 10.4807 14.7224C10.3536 15.0272 10.2704 15.2587 10.195 15.4688C10.0986 15.7373 10.0148 15.9706 9.86782 16.2768C9.65609 16.7232 9.40535 17.0484 9.06547 17.291C8.37455 17.787 7.49419 17.8036 6.43554 17.8036H0C0 13.0853 1.89444 8.55453 5.27101 5.2143C8.64758 1.87406 13.2221 0 17.9972 0C22.7723 0 27.3524 1.87406 30.7234 5.21981C34.1 8.56005 35.9944 13.0854 35.9944 17.8091H29.5589C28.5002 17.8091 27.6199 17.7925 26.929 17.2965C26.5891 17.0539 26.3383 16.7232 26.1266 16.2823C25.9778 15.9722 25.8938 15.7387 25.7958 15.4664ZM27.3859 33C30.2832 31.2472 32.6179 28.7227 34.1278 25.7132H34.1167L27.709 19.3745C27.0738 18.7406 26.6169 18.3107 25.9539 18.0626C25.2964 17.8146 24.5776 17.8091 23.5468 17.8091H12.4476C11.4168 17.8091 10.7036 17.8146 10.0406 18.0626C9.3775 18.3107 8.92617 18.7406 8.28541 19.3745L1.87773 25.7132C3.38771 28.7227 5.72233 31.2472 8.61972 33L15.8465 25.851C16.7045 25.0077 17.284 24.484 18.0028 24.484C18.7216 24.484 19.3066 25.0077 20.1591 25.851C20.9614 26.6447 21.7637 27.4389 22.5662 28.2334C24.1713 29.8225 25.7774 31.4125 27.3859 33Z" fill="white"/>
</svg>
